<svg width="36" height="36" viewBox="0 0 36 36" fill="none" xmlns="http://www.w3.org/2000/svg">
<g id="clarity:language-solid" clip-path="url(#clip0_48_142)">
<path id="Vector" d="M11 16.5L10 19.6H12L11 16.5Z" fill="black"/>
<path id="Vector_2" d="M30.2998 3H14.2998V8H18.2998V10H5.2998C3.5998 10 2.2998 11.3 2.2998 13V24C2.2998 25.7 3.5998 27 5.2998 27H6.2998V32.1L12.5998 27H19.2998V20H30.2998C31.9998 20 33.2998 18.7 33.2998 17V6C33.2998 4.3 31.9998 3 30.2998 3ZM13.0998 22.9L12.5998 21.3H9.4998L8.8998 22.9H6.4998L9.7998 14H12.1998L15.4998 22.9H13.0998ZM28.2998 15V17C26.9998 17 25.5998 16.6 24.3998 16C23.1998 16.6 21.7998 16.9 20.3998 17L20.2998 15C20.9998 15 21.6998 14.9 22.3998 14.7C21.4998 13.8 20.8998 12.7 20.5998 11.5H22.6998C22.9998 12.4 23.5998 13.1 24.2998 13.7C25.3998 12.8 26.0998 11.5 26.1998 10H20.1998V8H23.1998V6H25.1998V8H28.4998L28.5998 9C28.6998 11.1 27.8998 13.2 26.3998 14.7C27.0998 14.9 27.6998 15 28.2998 15Z" fill="black"/>
</g>
<defs>
<clipPath id="clip0_48_142">
<rect width="36" height="36" fill="white"/>
</clipPath>
</defs>
</svg>
