<svg width="24" height="24" viewBox="0 0 24 24" fill="none" xmlns="http://www.w3.org/2000/svg">
<g id="dashicons:privacy">
<path id="Vector" d="M12.0001 11.52C11.2801 11.52 10.8001 12 10.8001 12.72C10.8001 13.2 11.1601 13.56 11.5201 13.68L11.1601 15.36H12.7201L12.3601 13.68C12.8401 13.56 13.0801 13.2 13.0801 12.72C13.2001 12 12.7201 11.52 12.0001 11.52ZM12.1201 6.35999C11.2801 6.35999 10.4401 6.95999 10.4401 7.79999V9.59999H13.6801V7.79999C13.5601 6.95999 12.9601 6.35999 12.1201 6.35999ZM12.0001 2.39999L3.6001 5.99999V9.59999C3.7201 14.88 7.0801 19.56 12.0001 21.48C16.9201 19.56 20.2801 14.88 20.4001 9.59999V5.99999L12.0001 2.39999ZM16.8001 15.6C16.8001 16.32 16.3201 16.8 15.6001 16.8H8.4001C7.6801 16.8 7.2001 16.32 7.2001 15.6V10.8C7.2001 10.08 7.6801 9.59999 8.4001 9.59999H8.7601V7.79999C8.8801 6.11999 10.3201 4.79999 12.0001 4.79999C13.6801 4.79999 15.1201 6.11999 15.2401 7.79999V9.59999H15.6001C16.3201 9.59999 16.8001 10.08 16.8001 10.8V15.6Z" fill="black"/>
</g>
</svg>
