<svg width="28" height="28" viewBox="0 0 28 28" fill="none" xmlns="http://www.w3.org/2000/svg">
<path d="M14 2.38C7.58337 2.38 2.33337 7.61834 2.33337 14.07C2.33337 19.9033 6.60337 24.745 12.18 25.62V17.4533H9.21671V14.07H12.18V11.4917C12.18 8.56334 13.9184 6.95334 16.59 6.95334C17.8617 6.95334 19.1917 7.175 19.1917 7.175V10.0567H17.7217C16.275 10.0567 15.82 10.955 15.82 11.8767V14.07H19.0634L18.5384 17.4533H15.82V25.62C18.5692 25.1858 21.0726 23.7831 22.8783 21.6651C24.684 19.547 25.6729 16.8533 25.6667 14.07C25.6667 7.61834 20.4167 2.38 14 2.38Z" fill="black"/>
</svg>
