<svg width="36" height="36" viewBox="0 0 36 36" fill="none" xmlns="http://www.w3.org/2000/svg">
<g clip-path="url(#clip0_48_142)">
<path d="M11 16.5L10 19.6H12L11 16.5Z" fill="black"/>
<path d="M30.3 3H14.3V8H18.3V10H5.30005C3.60005 10 2.30005 11.3 2.30005 13V24C2.30005 25.7 3.60005 27 5.30005 27H6.30005V32.1L12.6 27H19.3V20H30.3C32 20 33.3 18.7 33.3 17V6C33.3 4.3 32 3 30.3 3ZM13.1 22.9L12.6 21.3H9.50005L8.90005 22.9H6.50005L9.80005 14H12.2L15.5 22.9H13.1ZM28.3 15V17C27 17 25.6 16.6 24.4 16C23.2 16.6 21.8 16.9 20.4 17L20.3 15C21 15 21.7 14.9 22.4 14.7C21.5 13.8 20.9 12.7 20.6 11.5H22.7001C23 12.4 23.6 13.1 24.3 13.7C25.4 12.8 26.1 11.5 26.2001 10H20.2001V8H23.2001V6H25.2001V8H28.5L28.6 9C28.7001 11.1 27.9 13.2 26.4 14.7C27.1 14.9 27.7 15 28.3 15Z" fill="black"/>
</g>
<defs>
<clipPath id="clip0_48_142">
<rect width="36" height="36" fill="white"/>
</clipPath>
</defs>
</svg>
