<svg width="33" height="33" viewBox="0 0 33 33" fill="none" xmlns="http://www.w3.org/2000/svg">
<path d="M24.75 30.25C23.6042 30.25 22.6302 29.849 21.8281 29.0469C21.026 28.2448 20.625 27.2708 20.625 26.125C20.625 25.9646 20.6365 25.7982 20.6594 25.6259C20.6823 25.4535 20.7167 25.2991 20.7625 25.1625L11.0688 19.525C10.6792 19.8687 10.2438 20.1383 9.7625 20.3335C9.28125 20.5287 8.77708 20.6259 8.25 20.625C7.10417 20.625 6.13021 20.224 5.32812 19.4219C4.52604 18.6198 4.125 17.6458 4.125 16.5C4.125 15.3542 4.52604 14.3802 5.32812 13.5781C6.13021 12.776 7.10417 12.375 8.25 12.375C8.77708 12.375 9.28125 12.4726 9.7625 12.6679C10.2438 12.8631 10.6792 13.1322 11.0688 13.475L20.7625 7.8375C20.7167 7.7 20.6823 7.54554 20.6594 7.37413C20.6365 7.20271 20.625 7.03633 20.625 6.875C20.625 5.72917 21.026 4.75521 21.8281 3.95312C22.6302 3.15104 23.6042 2.75 24.75 2.75C25.8958 2.75 26.8698 3.15104 27.6719 3.95312C28.474 4.75521 28.875 5.72917 28.875 6.875C28.875 8.02083 28.474 8.99479 27.6719 9.79688C26.8698 10.599 25.8958 11 24.75 11C24.2229 11 23.7188 10.9028 23.2375 10.7085C22.7563 10.5142 22.3208 10.2447 21.9312 9.9L12.2375 15.5375C12.2833 15.675 12.3177 15.8299 12.3406 16.0022C12.3635 16.1746 12.375 16.3405 12.375 16.5C12.375 16.6604 12.3635 16.8268 12.3406 16.9991C12.3177 17.1715 12.2833 17.3259 12.2375 17.4625L21.9312 23.1C22.3208 22.7562 22.7563 22.4872 23.2375 22.2929C23.7188 22.0985 24.2229 22.0009 24.75 22C25.8958 22 26.8698 22.401 27.6719 23.2031C28.474 24.0052 28.875 24.9792 28.875 26.125C28.875 27.2708 28.474 28.2448 27.6719 29.0469C26.8698 29.849 25.8958 30.25 24.75 30.25Z" fill="white"/>
</svg>
