<svg width="17" height="9" viewBox="0 0 17 9" fill="none" xmlns="http://www.w3.org/2000/svg">
<path id="Vector" d="M0.374196 0.344159C0.613866 0.123794 0.938885 0 1.27778 0C1.61667 0 1.94169 0.123794 2.18136 0.344159L8.50772 6.16269L14.8341 0.344159C15.0751 0.130039 15.398 0.0115592 15.7331 0.0142373C16.0682 0.0169155 16.3887 0.140538 16.6257 0.358478C16.8626 0.576418 16.997 0.871238 17 1.17944C17.0029 1.48764 16.874 1.78457 16.6412 2.00626L9.4113 8.65584C9.17163 8.87621 8.84661 9 8.50772 9C8.16882 9 7.8438 8.87621 7.60413 8.65584L0.374196 2.00626C0.134599 1.78583 0 1.4869 0 1.17521C0 0.863519 0.134599 0.564591 0.374196 0.344159Z" fill="#969696"/>
</svg>
