<?xml version="1.0" encoding="iso-8859-1"?>
<!-- Uploaded to: SVG Repo, www.svgrepo.com, Generator: SVG Repo Mixer Tools -->
<svg fill="#000000" height="800px" width="800px" version="1.1" id="Capa_1" xmlns="http://www.w3.org/2000/svg" xmlns:xlink="http://www.w3.org/1999/xlink" 
	 viewBox="0 0 72.541 72.541" xml:space="preserve">
<g>
	<path d="M44.487,67.087H22c-12.131,0-22-9.868-22-22V27.453c0-12.131,9.869-22,22-22h22.487c12.131,0,22,9.869,22,22v17.636
		c0,3.08-0.633,6.061-1.884,8.875c0.765,2.647,2.226,5.007,4.352,7.021l3.586,3.397l-4.668,1.614
		c-1.787,0.618-3.682,0.933-5.633,0.933l0,0c-2.766,0-5.646-0.619-8.582-1.843C50.795,66.4,47.653,67.087,44.487,67.087z M22,11.453
		c-8.822,0-16,7.178-16,16v17.636c0,8.822,7.178,16,16,16h22.487c2.675,0,5.323-0.676,7.659-1.951l1.347-0.735l1.384,0.661
		c2.196,1.048,4.309,1.659,6.295,1.822c-1.256-2.022-2.149-4.225-2.67-6.585l-0.23-1.046l0.482-0.957
		c1.15-2.271,1.733-4.695,1.733-7.209V27.453c0-8.822-7.179-16-16-16H22z"/>
	<circle cx="16.436" cy="36.271" r="4.454"/>
	<circle cx="32.945" cy="36.271" r="4.454"/>
	<circle cx="49.455" cy="36.271" r="4.454"/>
</g>
</svg>